HIERARCHY
ROOT Hips
{
	OFFSET	0.00	0.00	0.00
	CHANNELS 6 Xposition Yposition Zposition Zrotation Xrotation Yrotation
	JOINT LeftUpLeg
	{
		OFFSET	 0.126116	-0.065224	 0.014019
		CHANNELS 3 Zrotation Xrotation Yrotation
		JOINT LeftLeg
		{
			OFFSET	 0.000000	 0.569914	 0.000000
			CHANNELS 3 Zrotation Xrotation Yrotation
			JOINT LeftFoot
			{
				OFFSET	 0.000000	 0.544423	 0.000000
				CHANNELS 3 Zrotation Xrotation Yrotation
				JOINT LeftToeBase
				{
					OFFSET	 0.000000	 0.207117	 0.000000
					CHANNELS 3 Zrotation Xrotation Yrotation
					End Site
					{
						OFFSET	 0.000000	 0.207117	 0.000000
					}
				}
			}
		}
	}
	JOINT RightUpLeg
	{
		OFFSET	-0.124023	-0.065224	 0.008373
		CHANNELS 3 Zrotation Xrotation Yrotation
		JOINT RightLeg
		{
			OFFSET	 0.000000	 0.570047	 0.000000
			CHANNELS 3 Zrotation Xrotation Yrotation
			JOINT RightFoot
			{
				OFFSET	 0.000000	 0.544354	 0.000000
				CHANNELS 3 Zrotation Xrotation Yrotation
				JOINT RightToeBase
				{
					OFFSET	 0.000000	 0.207540	 0.000000
					CHANNELS 3 Zrotation Xrotation Yrotation
					End Site
					{
						OFFSET	 0.000000	 0.207540	 0.000000
					}
				}
			}
		}
	}
	JOINT Spine
	{
		OFFSET	 0.000184	 0.117403	 0.007763
		CHANNELS 3 Zrotation Xrotation Yrotation
		JOINT Spine1
		{
			OFFSET	 0.000000	 0.137269	 0.000000
			CHANNELS 3 Zrotation Xrotation Yrotation
			JOINT Spine2
			{
				OFFSET	 0.000000	 0.156879	 0.000000
				CHANNELS 3 Zrotation Xrotation Yrotation
				JOINT LeftShoulder
				{
					OFFSET	 0.080501	 0.160143	 0.002496
					CHANNELS 3 Zrotation Xrotation Yrotation
					JOINT LeftArm
					{
						OFFSET	 0.000000	 0.164363	 0.000000
						CHANNELS 3 Zrotation Xrotation Yrotation
						JOINT LeftForeArm
						{
							OFFSET	 0.000000	 0.364576	 0.000000
							CHANNELS 3 Zrotation Xrotation Yrotation
							JOINT LeftHand
							{
								OFFSET	 0.000000	 0.360812	 0.000000
								CHANNELS 3 Zrotation Xrotation Yrotation
								JOINT LeftHandIndex1
								{
									OFFSET	 0.000000	 0.086006	 0.000000
									CHANNELS 3 Zrotation Xrotation Yrotation
									JOINT LeftHandIndex2
									{
										OFFSET	 0.000000	 0.047237	 0.000000
										CHANNELS 3 Zrotation Xrotation Yrotation
										JOINT LeftHandIndex3
										{
											OFFSET	-0.004284	 0.038165	 0.000551
											CHANNELS 3 Zrotation Xrotation Yrotation
											End Site
											{
												OFFSET	-0.004284	 0.038165	 0.000551
											}
										}
									}
								}
							}
						}
					}
				}
				JOINT Neck
				{
					OFFSET	 0.000000	 0.176489	 0.000000
					CHANNELS 3 Zrotation Xrotation Yrotation
					JOINT Head
					{
						OFFSET	 0.000000	 0.077941	 0.001747
						CHANNELS 3 Zrotation Xrotation Yrotation
						End Site
						{
							OFFSET	 0.000000	 0.077941	 0.001747
						}
					}
				}
				JOINT RightShoulder
				{
					OFFSET	-0.080363	 0.159706	-0.000306
					CHANNELS 3 Zrotation Xrotation Yrotation
					JOINT RightArm
					{
						OFFSET	 0.000000	 0.164196	 0.000000
						CHANNELS 3 Zrotation Xrotation Yrotation
						JOINT RightForeArm
						{
							OFFSET	 0.000000	 0.365611	 0.000000
							CHANNELS 3 Zrotation Xrotation Yrotation
							JOINT RightHand
							{
								OFFSET	 0.000000	 0.360648	 0.000000
								CHANNELS 3 Zrotation Xrotation Yrotation
								JOINT RightHandIndex1
								{
									OFFSET	 0.000000	 0.069977	 0.000000
									CHANNELS 3 Zrotation Xrotation Yrotation
									JOINT RightHandIndex2
									{
										OFFSET	 0.000000	 0.052305	 0.000000
										CHANNELS 3 Zrotation Xrotation Yrotation
										JOINT RightHandIndex3
										{
											OFFSET	 0.009002	 0.042196	 0.000782
											CHANNELS 3 Zrotation Xrotation Yrotation
											End Site
											{
												OFFSET	 0.009002	 0.042196	 0.000782
											}
										}
									}
								}
							}
						}
					}
				}
			}
		}
	}
}
MOTION
Frames:    10
Frame Time: 0.03333334
-0.076205	 1.257998	-0.010708	 8.570950	-6.831929	-162.339900	 177.118800	 32.329160	 24.654970	 11.117680	-35.915080	 13.540990	 12.488090	 78.893670	-19.481480	 1.130232	 26.257510	-2.647166	-175.173300	 10.675730	 15.460960	-1.586855	-20.077890	 11.040640	 1.378631	 68.937960	-5.616431	-1.831738	 35.047710	 2.970225	-4.786493	 6.807810	 21.948240	-10.893530	 7.921193	 11.420000	 8.284834	-6.241115	-16.780630	-104.048600	 2.506528	 92.943810	 38.200260	 52.532130	-4.091415	 13.603110	-0.272011	-6.144584	 10.898720	 16.179110	 70.057530	 3.893598	 55.144170	-2.236502	-8.763316	 61.404370	 9.065135	 6.619983	 34.549860	 0.047996	 4.118318	-11.229510	-3.637992	 3.936424	-9.300555	-13.971940	 104.712500	 26.292060	-97.941570	-44.695880	 44.608950	 1.105412	-13.602880	-0.206038	 6.131711	 18.089680	-0.950853	-10.424990	-4.861747	 12.869060	-0.611126	 14.072210	 36.424120	-8.830592	-8.485462	 29.554160	-1.609930
-0.076029	 1.255633	-0.000084	 5.644729	-5.026402	-168.949600	 178.716400	 28.448330	 17.762960	 10.634200	-34.728000	 12.555970	 10.351530	 77.913130	-16.926370	 1.148974	 26.512440	-2.654499	-177.018600	 11.449360	 9.752394	-1.985809	-24.577900	 11.333780	 5.441295	 71.950380	-8.727407	-1.735901	 33.935940	 2.920290	-3.212136	 6.763484	 17.408790	-9.751543	 6.709290	 9.930208	 7.938644	-5.539524	-14.256420	-104.615000	 2.607103	 92.775750	 20.103740	 58.897120	 5.280796	 16.198820	-0.372521	-6.538865	 7.688644	 13.875780	 61.230190	 3.662654	 53.581920	-2.050803	-8.363285	 59.606080	 8.515168	 6.566074	 33.395880	 0.053450	 4.115411	-9.779768	-2.974064	 2.322241	-8.368266	-10.401580	 107.444100	 24.022710	-97.970530	-15.106670	 47.378330	-12.293640	-26.172080	-0.647791	 6.391575	 12.400030	-3.916121	-17.083020	-4.449156	 11.322990	-0.399367	 13.734390	 34.224990	-8.163437	-8.511592	 26.915620	-1.425701
-0.061136	 1.251403	 0.012149	 2.990689	-3.162722	-175.757200	-179.166100	 24.688310	 10.741700	 9.998144	-33.109600	 11.751110	 8.319410	 76.962760	-15.169410	 1.149181	 26.515310	-2.654578	-177.412700	 10.685390	 4.282946	-2.031884	-25.078500	 11.367480	 9.206374	 74.680080	-12.229130	-1.444262	 30.376240	 2.778882	-1.775495	 6.594792	 11.203040	-7.174082	 4.896449	 7.469748	 6.673102	-4.063319	-11.058340	-105.453700	 3.251875	 92.741230	 1.510798	 59.243450	 23.334010	 23.976240	-0.721144	-6.826052	 0.456875	 12.018640	 55.795270	 3.095239	 48.359370	-1.605392	-7.483497	 54.461310	 7.199781	 6.380431	 29.289400	 0.062242	 4.084889	-8.727745	-2.229529	 1.225403	-7.108293	-6.143904	 110.289900	 21.308030	-97.824500	 0.598452	 45.869540	-20.510640	-21.767550	-0.467435	 6.886074	 12.975140	-0.633889	-9.116783	-3.383462	 7.694405	 0.210422	 12.978620	 28.013830	-6.441783	-8.533969	 19.319790	-0.921498
-0.045370	 1.250062	 0.023315	 1.855161	-2.161448	-179.517800	-177.201200	 22.423270	 6.763813	 9.334784	-31.352300	 9.724586	 0.235136	 75.976720	-7.534774	 1.149708	 26.522520	-2.654787	-177.055600	 10.577140	 0.898531	-2.016281	-24.909440	 11.064780	 11.193000	 75.125370	-13.331480	-1.352034	 29.195200	 2.737668	-0.736934	 6.343054	 6.846190	-5.335152	 4.558393	 5.940821	 5.568266	-3.796666	-8.601446	-106.348400	 3.738026	 92.730620	-2.304060	 57.129920	 27.281480	 29.645040	-0.961239	-7.010142	 1.879433	 10.982100	 44.710980	 2.167585	 37.907080	-0.967706	-6.436244	 43.729960	 5.202271	 6.013144	 20.699740	 0.033880	 4.017150	-8.248828	-1.742287	 0.583159	-6.617003	-3.433446	 112.547200	 19.342750	-97.656550	 2.478741	 44.896680	-18.378630	-16.982180	-0.273475	 7.264016	 10.078520	 4.739947	-9.205123	-2.855589	 5.897259	 0.547768	 12.694730	 24.919210	-5.654171	-8.520137	 15.741620	-0.692569
-0.027020	 1.249184	 0.036559	 1.373965	-1.463831	 177.816500	-174.938300	 20.684980	 3.843908	 8.680490	-29.548730	 6.629164	-11.622150	 74.468910	 3.748139	 1.150470	 26.532900	-2.655090	-176.068200	 11.449710	-1.894098	-2.107098	-25.887020	 10.469630	 12.756610	 75.263750	-13.282160	-1.343839	 29.089080	 2.734088	 0.369344	 6.059999	 2.833588	-3.858540	 4.686563	 4.659018	 4.512257	-4.074097	-6.080242	-107.388700	 4.205228	 92.734600	 5.927638	 54.352580	 20.415850	 28.437260	-0.886424	-7.338569	 9.825300	 7.421806	 29.233010	 1.215711	 23.259170	-0.478786	-5.896235	 28.556190	 3.178368	 5.511670	 8.606285	-0.098089	 3.924639	-8.004122	-1.324026	 0.090123	-6.459346	-1.135808	 114.813700	 17.471610	-97.447660	 8.846930	 46.157230	-19.538100	-25.028380	-0.553402	 7.447789	 12.134690	 9.837985	-12.296080	-2.543969	 4.808987	 0.771461	 12.547890	 23.033730	-5.192132	-8.506303	 13.767680	-0.567532
-0.016769	 1.248653	 0.046275	 1.187629	-0.926748	 175.839400	-173.549800	 19.287430	 1.845538	 8.187371	-28.143180	 4.273596	-18.630010	 72.911110	 10.560300	 1.151329	 26.544600	-2.655431	-175.360900	 11.899720	-3.881593	-2.147593	-26.317690	 9.910859	 12.453880	 75.282640	-12.222600	-1.337545	 29.007370	 2.731349	 1.142866	 5.871521	-0.505917	-2.397643	 4.889740	 3.393480	 3.387857	-4.353248	-3.635015	-108.283400	 4.573530	 92.739510	 9.794109	 52.301640	 17.002510	 29.849260	-0.932912	-7.558367	 12.374010	 3.439746	 17.823050	 0.766654	 14.682250	-0.336752	-5.872663	 19.695140	 2.178715	 5.208924	 1.496483	-0.223604	 3.822939	-7.856509	-0.994563	-0.269504	-6.320412	 0.626509	 116.490100	 16.018430	-97.238770	 8.432629	 46.967030	-16.967400	-24.061870	-0.505696	 7.718226	 10.328800	 12.443760	-16.430380	-2.377681	 4.249024	 0.895930	 12.479480	 22.062640	-4.958768	-8.497462	 12.747120	-0.503096
-0.012434	 1.248632	 0.052966	 1.321491	-0.486814	 174.474100	-172.738600	 18.317740	 0.628572	 7.893508	-27.286630	 2.939725	-21.871750	 71.755550	 13.669600	 1.152428	 26.559520	-2.655867	-174.837400	 11.898800	-5.055113	-2.131176	-26.143420	 9.356501	 9.565338	 75.030400	-9.721297	-1.332893	 28.946800	 2.729331	 1.635414	 5.877938	-3.277767	-0.656948	 4.965864	 2.031783	 2.053658	-4.544506	-1.170847	-109.105000	 4.861215	 92.740600	 9.118663	 50.865410	 16.566330	 36.463850	-1.203023	-7.610069	 9.497363	 1.605029	 9.735855	 0.688259	 12.722970	-0.330980	-5.889788	 17.710910	 1.962938	 5.136796	-0.148747	-0.257939	 3.697592	-7.815914	-0.737914	-0.503526	-6.181907	 1.872439	 117.631400	 14.912440	-97.061970	 6.145004	 46.608480	-14.251790	-21.977530	-0.417889	 7.988286	 7.545033	 11.215560	-21.681200	-2.382923	 4.303412	 0.901715	 12.485950	 22.157490	-4.981439	-8.498271	 12.835780	-0.508692
-0.010000	 1.248486	 0.059044	 1.525144	-0.124027	 173.211400	-172.093100	 17.518880	-0.413096	 7.672392	-26.632940	 1.680148	-24.417030	 70.706330	 16.201080	 1.153436	 26.573210	-2.656267	-174.374800	 11.928580	-6.093867	-2.117229	-25.994910	 8.859221	 7.368426	 74.755970	-7.815241	-1.328634	 28.891260	 2.727486	 2.135191	 5.858940	-5.895404	 0.927854	 5.096728	 0.741728	 0.778185	-4.749705	 1.258990	-109.858500	 5.124931	 92.745290	 10.473080	 49.950990	 14.626640	 40.573260	-1.355064	-7.687479	 6.873306	-1.154866	 2.383989	 0.617042	 10.926360	-0.328123	-5.912163	 15.891480	 1.766513	 5.069766	-1.657240	-0.291255	 3.582524	-7.779185	-0.502563	-0.718943	-6.079299	 3.056113	 118.676000	 13.901520	-96.880720	 3.037576	 46.150150	-11.023560	-19.598140	-0.319581	 8.230592	 5.125592	 10.686440	-26.928170	-2.387734	 4.353273	 0.907024	 12.491930	 22.244450	-5.002247	-8.499005	 12.917060	-0.513822
-0.009066	 1.247816	 0.063790	 1.703090	 0.173291	 172.041200	-171.581200	 16.915460	-1.443136	 7.577963	-26.351240	 0.475043	-27.189700	 69.834560	 19.021190	 1.154394	 26.586200	-2.656648	-173.957600	 12.088980	-7.178432	-2.139310	-26.229870	 8.381070	 5.240253	 74.747800	-5.816936	-1.324592	 28.838510	 2.725739	 2.585151	 5.813035	-8.180252	 2.052040	 5.367266	-0.269009	-0.285244	-5.001001	 3.615445	-110.574600	 5.375340	 92.752910	 12.687670	 49.339860	 12.102780	 41.803780	-1.390062	-7.836562	 5.991680	-4.610982	-3.805931	 0.549863	 9.220246	-0.327518	-5.939188	 14.163790	 1.580850	 5.005226	-3.089847	-0.324566	 3.473089	-7.744730	-0.278950	-0.922282	-6.006507	 4.194039	 119.667000	 12.944530	-96.691800	-0.674687	 45.956330	-7.435298	-16.854130	-0.207170	 8.454724	 2.854590	 10.403420	-31.587060	-2.392308	 4.400637	 0.912071	 12.497630	 22.327050	-5.022035	-8.499696	 12.994270	-0.518697
-0.008853	 1.247006	 0.066076	 1.957691	 0.267470	 171.757100	-171.278800	 16.947400	-1.650753	 7.677535	-26.648130	 0.691790	-26.898890	 69.938560	 18.654990	 1.155535	 26.601650	-2.657097	-173.614800	 12.207480	-7.488128	-2.167303	-26.526230	 8.192458	 4.518723	 74.795260	-5.128368	-1.319135	 28.767300	 2.723388	 2.745613	 5.782338	-10.059100	 3.317385	 5.475019	-1.292290	-1.485419	-5.055760	 5.884587	-111.093000	 5.584205	 92.777950	 13.536010	 48.956200	 11.019570	 41.694200	-1.373292	-8.026551	 3.952033	-5.954302	-8.664320	 0.535262	 8.722145	-0.331339	-5.948133	 13.659050	 1.526712	 4.986547	-3.500666	-0.334425	 3.408722	-7.630077	-0.085032	-1.034116	-5.964595	 4.910587	 120.396500	 12.377960	-96.610170	-2.056431	 46.152370	-6.167522	-17.100560	-0.206891	 8.637498	 2.033996	 8.192694	-36.121370	-2.386719	 4.469807	 0.911647	 12.504130	 22.420460	-5.044429	-8.499898	 13.017010	-0.520132
